# xmcd CD database file
#
# Track frame offsets:
#	150
#	28643
#	42964
#	65390
#	96281
#	117216
#	143398
#	157401
#	183925
#	201097
#	226428
#	248704
#	264584
#	291506
#
# Disc length: 4218 seconds
#
# Revision: 0
# Processed by: cddbd v1.5.2PL0 Copyright (c) Steve Scherf et al.
# Submitted via: CDex 1.70beta2
#
DISCID=c910780e
DTITLE=The International Trio - 1981 - 2017
DYEAR=2017
DGENRE=Jazz
TTITLE0=Wolverine Blues
TTITLE1=The Tennessee Waltz
TTITLE2=The Darktown Strutters' Ball
TTITLE3=The Lonesome Road
TTITLE4=Love Lies
TTITLE5=Dardanella
TTITLE6=Just One Of Those Things
TTITLE7=Weary Blues
TTITLE8=If I Could Be With You One Hour Tonight
TTITLE9=I'm Throug, Goodbye
TTITLE10=A Porter's Love Song To A Chambermaid
TTITLE11=Charleston Rag
TTITLE12=Mood Indigo
TTITLE13=Madame Bécassine
EXTD=YEAR: 2017
EXTT0=
EXTT1=
EXTT2=
EXTT3=
EXTT4=
EXTT5=
EXTT6=
EXTT7=
EXTT8=
EXTT9=
EXTT10=
EXTT11=
EXTT12=
EXTT13=
PLAYORDER=
